<?xml version="1.0" standalone="no"?>
<!DOCTYPE svg PUBLIC "-//W3C//DTD SVG 1.1//EN" "http://www.w3.org/Graphics/SVG/1.1/DTD/svg11.dtd" >
<svg xmlns="http://www.w3.org/2000/svg">
<metadata></metadata>
<defs>
<font id="8-bit_operatorbold" horiz-adv-x="1422" >
<font-face units-per-em="2048" ascent="1637" descent="-411" />
<missing-glyph horiz-adv-x="711" />
<glyph horiz-adv-x="0" />
<glyph horiz-adv-x="682" />
<glyph unicode=" "  horiz-adv-x="711" />
<glyph unicode="&#x09;" horiz-adv-x="711" />
<glyph unicode="&#xa0;" horiz-adv-x="711" />
<glyph unicode="!" horiz-adv-x="711" d="M178 0v356h355v-356h-355zM178 533v1067h355v-1067h-355z" />
<glyph unicode="&#x22;" horiz-adv-x="1600" d="M178 1067v177h178v356h355v-356h-178v-177h-355zM889 1067v177h178v356h355v-356h-178v-177h-355z" />
<glyph unicode="#" horiz-adv-x="1777" d="M178 356v177h178v534h-178v177h178v356h355v-356h356v356h355v-356h178v-177h-178v-534h178v-177h-178v-356h-355v356h-356v-356h-355v356h-178zM711 533h356v534h-356v-534z" />
<glyph unicode="$" d="M178 178v355h355v-355h356v533h-533v178h-178v533h178v178h177v356h356v-356h178v-178h177v-355h-355v355h-356v-533h534v-178h177v-533h-177v-178h-178v-356h-356v356h-177v178h-178z" />
<glyph unicode="%" horiz-adv-x="1600" d="M178 0v356h178v177h177v178h178v178h178v178h178v177h177v178h178v-355h-178v-178h-177v-178h-178v-178h-178v-177h-178v-178h-177v-178h-178zM178 1067v355h355v-355h-355zM1067 0v356h355v-356h-355z" />
<glyph unicode="&#x26;" d="M178 178v533h178v178h-178v533h178v178h711v-178h177v-355h-355v355h-356v-533h356v-178h-356v-533h356v355h355v-533h-888v178h-178z" />
<glyph unicode="'" horiz-adv-x="888" d="M178 1067v177h178v356h355v-356h-178v-177h-355z" />
<glyph unicode="(" horiz-adv-x="1066" d="M178 356v888h178v178h177v178h356v-178h-178v-178h-178v-888h178v-178h178v-178h-356v178h-177v178h-178z" />
<glyph unicode=")" horiz-adv-x="1066" d="M178 0v178h178v178h177v888h-177v178h-178v178h355v-178h178v-178h178v-888h-178v-178h-178v-178h-355z" />
<glyph unicode="*" horiz-adv-x="1777" d="M178 711v178h355v178h-177v177h355v-177h356v177h355v-177h-178v-178h356v-178h-356v-178h178v-177h-355v177h-356v-177h-355v177h177v178h-355z" />
<glyph unicode="+" d="M178 711v178h355v355h356v-355h355v-178h-355v-355h-356v355h-355z" />
<glyph unicode="," horiz-adv-x="888" d="M178 0h178v356h355v-356h-178v-178h-355v178z" />
<glyph unicode="-" horiz-adv-x="1066" d="M178 711v178h711v-178h-711z" />
<glyph unicode="." horiz-adv-x="711" d="M178 0v356h355v-356h-355z" />
<glyph unicode="/" horiz-adv-x="1066" d="M178 0v533h178v534h177v533h356v-533h-178v-534h-178v-533h-355z" />
<glyph unicode="0" d="M178 178v1244h178v178h711v-178h177v-1244h-177v-178h-711v178h-178zM533 178h356v533h-178v-178h-178v-355zM533 889h178v178h178v355h-356v-533z" />
<glyph unicode="1" horiz-adv-x="1066" d="M178 0v178h178v1066h-178v178h178v178h355v-1422h178v-178h-711z" />
<glyph unicode="2" d="M178 0v356h178v177h177v178h178v178h178v533h-356v-355h-355v355h178v178h711v-178h177v-533h-177v-178h-178v-178h-178v-177h-178v-178h711v-178h-1066z" />
<glyph unicode="3" d="M178 178v355h355v-355h356v533h-356v178h356v533h-356v-355h-355v355h178v178h711v-178h177v-533h-177v-178h177v-533h-177v-178h-711v178h-178z" />
<glyph unicode="4" d="M178 356v533h178v178h177v177h178v178h178v178h355v-1600h-355v356h-711zM533 533h356v534h-178v-178h-178v-356z" />
<glyph unicode="5" d="M178 178v355h355v-355h356v711h-711v711h1066v-178h-711v-355h534v-178h177v-711h-177v-178h-711v178h-178z" />
<glyph unicode="6" d="M178 178v1244h178v178h711v-178h177v-355h-355v355h-356v-533h534v-178h177v-533h-177v-178h-711v178h-178zM533 178h356v533h-356v-533z" />
<glyph unicode="7" d="M178 1422v178h1066v-533h-177v-356h-178v-711h-356v711h178v356h178v355h-711z" />
<glyph unicode="8" d="M178 178v533h178v178h-178v533h178v178h711v-178h177v-533h-177v-178h177v-533h-177v-178h-711v178h-178zM533 178h356v533h-356v-533zM533 889h356v533h-356v-533z" />
<glyph unicode="9" d="M178 178v355h355v-355h356v533h-533v178h-178v533h178v178h711v-178h177v-1244h-177v-178h-711v178h-178zM533 889h356v533h-356v-533z" />
<glyph unicode=":" horiz-adv-x="711" d="M178 0v356h355v-356h-355zM178 889v355h355v-355h-355z" />
<glyph unicode=";" horiz-adv-x="888" d="M178 0h178v356h355v-356h-178v-178h-355v178zM356 889v355h355v-355h-355z" />
<glyph unicode="&#x3c;" horiz-adv-x="1244" d="M178 711v178h178v178h177v177h178v178h178v178h178v-356h-178v-177h-178v-178h-178v-178h178v-178h178v-177h178v-356h-178v178h-178v178h-178v177h-177v178h-178z" />
<glyph unicode="=" d="M178 533v178h1066v-178h-1066zM178 889v178h1066v-178h-1066z" />
<glyph unicode="&#x3e;" horiz-adv-x="1244" d="M178 0v356h178v177h177v178h178v178h-178v178h-177v177h-178v356h178v-178h177v-178h178v-177h178v-178h178v-178h-178v-178h-178v-177h-178v-178h-177v-178h-178z" />
<glyph unicode="?" d="M178 1067v355h178v178h711v-178h177v-533h-177v-178h-178v-178h-356v178h178v178h178v533h-356v-355h-355zM533 0v356h356v-356h-356z" />
<glyph unicode="@" horiz-adv-x="1777" d="M178 178v1244h178v178h1066v-178h178v-1066h-711v177h-178v534h178v177h355v178h-711v-1244h1067v-178h-1244v178h-178zM1067 533h177v534h-177v-534z" />
<glyph unicode="A" d="M178 0v1422h178v178h711v-178h177v-1422h-355v533h-356v-533h-355zM533 711h356v711h-356v-711z" />
<glyph unicode="B" d="M178 0v1600h889v-178h177v-533h-177v-178h177v-533h-177v-178h-889zM533 178h356v533h-356v-533zM533 889h356v533h-356v-533z" />
<glyph unicode="C" d="M178 178v1244h178v178h711v-178h177v-355h-355v355h-356v-1244h356v355h355v-355h-177v-178h-711v178h-178z" />
<glyph unicode="D" d="M178 0v1600h889v-178h177v-1244h-177v-178h-889zM533 178h356v1244h-356v-1244z" />
<glyph unicode="E" d="M178 0v1600h1066v-178h-711v-533h534v-178h-534v-533h711v-178h-1066z" />
<glyph unicode="F" d="M178 0v1600h1066v-178h-711v-533h534v-178h-534v-711h-355z" />
<glyph unicode="G" d="M178 178v1244h178v178h711v-178h177v-355h-355v355h-356v-1244h356v533h-178v178h533v-711h-177v-178h-711v178h-178z" />
<glyph unicode="H" d="M178 0v1600h355v-711h356v711h355v-1600h-355v711h-356v-711h-355z" />
<glyph unicode="I" horiz-adv-x="1066" d="M178 0v178h178v1244h-178v178h711v-178h-178v-1244h178v-178h-711z" />
<glyph unicode="J" d="M178 178v355h355v-355h356v1244h-178v178h533v-1422h-177v-178h-711v178h-178z" />
<glyph unicode="K" d="M178 0v1600h355v-711h178v178h178v533h355v-533h-177v-178h-178v-178h178v-178h177v-533h-355v533h-178v178h-178v-711h-355z" />
<glyph unicode="L" d="M178 0v1600h355v-1422h711v-178h-1066z" />
<glyph unicode="M" horiz-adv-x="1600" d="M178 0v1600h178v-178h177v-178h178v-177h178v177h178v178h177v178h178v-1600h-355v889h-178v-178h-178v178h-178v-889h-355z" />
<glyph unicode="N" d="M178 0v1600h355v-356h178v-177h178v533h355v-1600h-355v711h-178v178h-178v-889h-355z" />
<glyph unicode="O" d="M178 178v1244h178v178h711v-178h177v-1244h-177v-178h-711v178h-178zM533 178h356v1244h-356v-1244z" />
<glyph unicode="P" d="M178 0v1600h889v-178h177v-533h-177v-178h-534v-711h-355zM533 889h356v533h-356v-533z" />
<glyph unicode="Q" d="M178 178v1244h178v178h711v-178h177v-1244h-177v-356h177v-178h-355v178h-178v178h-355v178h-178zM533 178h356v1244h-356v-1244z" />
<glyph unicode="R" d="M178 0v1600h889v-178h177v-533h-177v-178h177v-711h-355v711h-356v-711h-355zM533 889h356v533h-356v-533z" />
<glyph unicode="S" d="M178 178v355h355v-355h356v533h-533v178h-178v533h178v178h711v-178h177v-355h-355v355h-356v-533h534v-178h177v-533h-177v-178h-711v178h-178z" />
<glyph unicode="T" d="M178 1422v178h1066v-178h-355v-1422h-356v1422h-355z" />
<glyph unicode="U" d="M178 178v1422h355v-1422h356v1422h355v-1422h-177v-178h-711v178h-178z" />
<glyph unicode="V" d="M178 356v1244h355v-1244h356v1244h355v-1244h-177v-178h-178v-178h-356v178h-177v178h-178z" />
<glyph unicode="W" horiz-adv-x="1600" d="M178 356v1244h355v-1244h178v-356h-355v356h-178zM711 356v888h178v-888h-178zM889 0v356h178v1244h355v-1244h-178v-356h-355z" />
<glyph unicode="X" d="M178 0v533h178v178h177v178h-177v178h-178v533h355v-533h356v533h355v-533h-177v-178h-178v-178h178v-178h177v-533h-355v533h-356v-533h-355z" />
<glyph unicode="Y" d="M178 889v711h355v-711h356v711h355v-711h-177v-178h-178v-711h-356v711h-177v178h-178z" />
<glyph unicode="Z" d="M178 0v533h178v178h177v178h178v178h178v355h-711v178h1066v-533h-177v-178h-178v-178h-178v-178h-178v-355h711v-178h-1066z" />
<glyph unicode="[" horiz-adv-x="1066" d="M178 0v1600h711v-178h-356v-1244h356v-178h-711z" />
<glyph unicode="\" horiz-adv-x="1066" d="M178 1067v533h355v-533h178v-534h178v-533h-356v533h-177v534h-178z" />
<glyph unicode="]" horiz-adv-x="1066" d="M178 0v178h355v1244h-355v178h711v-1600h-711z" />
<glyph unicode="^" d="M178 1067v177h178v178h177v178h356v-178h178v-178h177v-177h-355v177h-356v-177h-355z" />
<glyph unicode="_" horiz-adv-x="711" d="M0 -178h711v-178h-711v178z" />
<glyph unicode="`" horiz-adv-x="888" d="M178 1422v178h355v-178h178v-178h-355v178h-178z" />
<glyph unicode="a" d="M178 178v355h178v178h533v356h-356v-178h-355v178h178v177h711v-177h177v-1067h-888v178h-178zM533 178h356v355h-356v-355z" />
<glyph unicode="b" d="M178 0v1600h355v-356h534v-177h177v-889h-177v-178h-889zM533 178h356v889h-356v-889z" />
<glyph unicode="c" d="M178 178v889h178v177h711v-177h177v-356h-355v356h-356v-889h356v355h355v-355h-177v-178h-711v178h-178z" />
<glyph unicode="d" d="M178 178v889h178v177h533v356h355v-1600h-888v178h-178zM533 178h356v889h-356v-889z" />
<glyph unicode="e" d="M178 178v889h178v177h711v-177h177v-534h-711v-355h356v178h355v-178h-177v-178h-711v178h-178zM533 711h356v356h-356v-356z" />
<glyph unicode="f" horiz-adv-x="1244" d="M178 889v178h178v355h177v178h534v-178h-356v-355h356v-178h-356v-889h-355v889h-178z" />
<glyph unicode="g" d="M178 -178v356h178v178h-178v177h178v178h-178v356h178v177h1066v-177h-178v-356h-177v-178h-534v-177h534v-178h177v-356h-177v-178h-711v178h-178zM533 -178h356v356h-356v-356zM533 711h356v356h-356v-356z" />
<glyph unicode="h" d="M178 0v1600h355v-356h534v-177h177v-1067h-355v1067h-356v-1067h-355z" />
<glyph unicode="i" horiz-adv-x="1066" d="M178 0v178h178v889h-178v177h533v-1066h178v-178h-711zM356 1422v356h355v-356h-355z" />
<glyph unicode="j" d="M178 -178v356h355v-356h356v1245h-178v177h533v-1422h-177v-178h-711v178h-178zM889 1422v356h355v-356h-355z" />
<glyph unicode="k" d="M178 0v1600h355v-889h178v178h178v355h355v-355h-177v-178h-178v-178h178v-177h177v-356h-355v356h-178v177h-178v-533h-355z" />
<glyph unicode="l" horiz-adv-x="1066" d="M178 0v178h178v1244h-178v178h533v-1422h178v-178h-711z" />
<glyph unicode="m" horiz-adv-x="1777" d="M178 0v1244h711v-177h178v-1067h-356v1067h-178v-1067h-355zM1067 1067v177h355v-177h178v-1067h-356v1067h-177z" />
<glyph unicode="n" d="M178 0v1244h889v-177h177v-1067h-355v1067h-356v-1067h-355z" />
<glyph unicode="o" d="M178 178v889h178v177h711v-177h177v-889h-177v-178h-711v178h-178zM533 178h356v889h-356v-889z" />
<glyph unicode="p" d="M178 -356v1600h889v-177h177v-889h-177v-178h-534v-356h-355zM533 178h356v889h-356v-889z" />
<glyph unicode="q" d="M178 178v889h178v177h888v-1600h-355v356h-533v178h-178zM533 178h356v889h-356v-889z" />
<glyph unicode="r" d="M178 0v1244h889v-177h177v-356h-355v356h-356v-1067h-355z" />
<glyph unicode="s" d="M178 178v178h355v-178h356v355h-533v178h-178v356h178v177h711v-177h177v-178h-355v178h-356v-356h534v-178h177v-355h-177v-178h-711v178h-178z" />
<glyph unicode="t" horiz-adv-x="1244" d="M178 1067v177h178v356h355v-356h356v-177h-356v-889h356v-178h-534v178h-177v889h-178z" />
<glyph unicode="u" d="M178 178v1066h355v-1066h356v1066h355v-1244h-888v178h-178z" />
<glyph unicode="v" d="M178 356v888h355v-888h356v888h355v-888h-177v-178h-178v-178h-356v178h-177v178h-178z" />
<glyph unicode="w" horiz-adv-x="1600" d="M178 356v888h355v-888h178v-356h-355v356h-178zM711 356v711h178v-711h-178zM889 0v356h178v888h355v-888h-178v-356h-355z" />
<glyph unicode="x" d="M178 0v356h178v177h177v178h-177v178h-178v355h355v-355h356v355h355v-355h-177v-178h-178v-178h178v-177h177v-356h-355v356h-356v-356h-355z" />
<glyph unicode="y" d="M178 0h355v-178h356v356h-533v178h-178v888h355v-888h356v888h355v-1422h-177v-178h-711v178h-178v178z" />
<glyph unicode="z" d="M178 0v356h178v177h177v178h178v178h178v178h-711v177h1066v-355h-177v-178h-178v-178h-178v-177h-178v-178h711v-178h-1066z" />
<glyph unicode="{" d="M178 711v178h355v533h178v178h533v-178h-355v-533h-178v-178h178v-533h355v-178h-533v178h-178v533h-355z" />
<glyph unicode="|" horiz-adv-x="711" d="M178 0v1600h355v-1600h-355z" />
<glyph unicode="}" d="M178 0v178h355v533h178v178h-178v533h-355v178h533v-178h178v-533h355v-178h-355v-533h-178v-178h-533z" />
<glyph unicode="~" horiz-adv-x="1600" d="M178 533v178h178v178h533v-178h178v178h355v-178h-178v-178h-533v178h-178v-178h-355z" />
<glyph unicode="&#xa1;" horiz-adv-x="711" d="M178 -356v1067h355v-1067h-355zM178 889v355h355v-355h-355z" />
<glyph unicode="&#xa2;" d="M178 533v534h178v177h177v356h356v-356h178v-177h177v-178h-355v178h-356v-534h356v178h355v-178h-177v-177h-178v-356h-356v356h-177v177h-178z" />
<glyph unicode="&#xa3;" horiz-adv-x="1600" d="M178 0v178h178v533h-178v178h178v533h177v178h711v-178h178v-355h-355v355h-356v-533h356v-178h-356v-533h356v355h355v-355h-178v-178h-1066z" />
<glyph unicode="&#xa5;" d="M178 178v178h355v177h-355v178h178v178h-178v711h355v-711h356v711h355v-711h-177v-178h177v-178h-355v-177h355v-178h-355v-178h-356v178h-355z" />
<glyph unicode="&#xa6;" horiz-adv-x="711" d="M178 0v711h355v-711h-355zM178 889v711h355v-711h-355z" />
<glyph unicode="&#xa8;" d="M178 1244v356h355v-356h-355zM889 1244v356h355v-356h-355z" />
<glyph unicode="&#xa9;" horiz-adv-x="1777" d="M178 356v711h178v-711h-178zM356 178v178h177v-178h-177zM356 1067v177h177v-177h-177zM533 0v178h711v-178h-711zM533 533v356h178v-356h-178zM533 1244v178h711v-178h-711zM711 356v177h356v-177h-356zM711 889v178h356v-178h-356zM1244 178v178h178v-178h-178z M1244 1067v177h178v-177h-178zM1422 356v711h178v-711h-178z" />
<glyph unicode="&#xab;" horiz-adv-x="1777" d="M178 711v178h178v178h177v177h356v-177h-178v-178h-178v-178h178v-178h178v-177h-356v177h-177v178h-178zM889 711v178h178v178h177v177h356v-177h-178v-178h-178v-178h178v-178h178v-177h-356v177h-177v178h-178z" />
<glyph unicode="&#xac;" d="M178 711v178h1066v-533h-355v355h-711z" />
<glyph unicode="&#xad;" horiz-adv-x="1066" d="M178 711v178h711v-178h-711z" />
<glyph unicode="&#xae;" horiz-adv-x="1777" d="M178 356v711h178v-711h-178zM356 178v178h177v-178h-177zM356 1067v177h177v-177h-177zM533 0v178h711v-178h-711zM533 356v711h534v-178h-356v-178h356v-178h-356v-177h-178zM533 1244v178h711v-178h-711zM1067 356v177h177v-177h-177zM1067 711v178h177v-178h-177z M1244 178v178h178v-178h-178zM1244 1067v177h178v-177h-178zM1422 356v711h178v-711h-178z" />
<glyph unicode="&#xb0;" horiz-adv-x="1066" d="M178 1067v355h178v-355h-178zM356 889v178h355v-178h-355zM356 1422v178h355v-178h-355zM711 1067v355h178v-355h-178z" />
<glyph unicode="&#xb1;" d="M178 0v178h1066v-178h-1066zM178 711v178h355v355h356v-355h355v-178h-355v-355h-356v355h-355z" />
<glyph unicode="&#xb4;" horiz-adv-x="888" d="M178 1244v178h178v178h355v-178h-178v-178h-355z" />
<glyph unicode="&#xb5;" d="M178 -356v1600h355v-1066h356v1066h355v-1066h-177v-178h-534v-356h-355z" />
<glyph unicode="&#xb6;" horiz-adv-x="1600" d="M178 889v533h178v178h1066v-1600h-355v1422h-178v-1422h-356v711h-177v178h-178z" />
<glyph unicode="&#xb7;" horiz-adv-x="711" d="M178 533v356h355v-356h-355z" />
<glyph unicode="&#xb8;" horiz-adv-x="1244" d="M178 -356h533v178h-178v178h356v-178h178v-178h-178v-177h-711v177z" />
<glyph unicode="&#xbb;" horiz-adv-x="1777" d="M178 356v177h178v178h177v178h-177v178h-178v177h355v-177h178v-178h178v-178h-178v-178h-178v-177h-355zM889 356v177h178v178h177v178h-177v178h-178v177h355v-177h178v-178h178v-178h-178v-178h-178v-177h-355z" />
<glyph unicode="&#xbf;" d="M178 -178v534h178v177h177v178h356v-178h-178v-177h-178v-534h356v356h355v-356h-177v-178h-711v178h-178zM533 889v355h356v-355h-356z" />
<glyph unicode="&#xc0;" d="M178 0v1422h178v178h711v-178h177v-1422h-355v533h-356v-533h-355zM356 1956v177h355v-177h178v-178h-356v178h-177zM533 711h356v711h-356v-711z" />
<glyph unicode="&#xc1;" d="M178 0v1422h178v178h711v-178h177v-1422h-355v533h-356v-533h-355zM533 711h356v711h-356v-711zM533 1778v178h178v177h356v-177h-178v-178h-356z" />
<glyph unicode="&#xc2;" d="M178 0v1422h178v178h711v-178h177v-1422h-355v533h-356v-533h-355zM178 1778v178h178v177h177v178h356v-178h178v-177h177v-178h-355v178h-356v-178h-355zM533 711h356v711h-356v-711z" />
<glyph unicode="&#xc3;" d="M178 0v1422h178v178h711v-178h177v-1422h-355v533h-356v-533h-355zM178 1778v178h178v177h533v-177h178v177h355v-177h-178v-178h-533v178h-178v-178h-355zM533 711h356v711h-356v-711z" />
<glyph unicode="&#xc4;" d="M178 0v1422h178v178h711v-178h177v-1422h-355v533h-356v-533h-355zM178 1778v355h355v-355h-355zM533 711h356v711h-356v-711zM889 1778v355h355v-355h-355z" />
<glyph unicode="&#xc5;" d="M178 0v1422h178v178h711v-178h177v-1422h-355v533h-356v-533h-355zM178 1956v177h178v178h711v-178h177v-177h-177v-178h-711v178h-178zM533 711h356v711h-356v-711zM533 1956h356v177h-356v-177z" />
<glyph unicode="&#xc6;" horiz-adv-x="1777" d="M178 0v1422h178v178h1244v-178h-356v-533h356v-178h-356v-533h356v-178h-711v533h-356v-533h-355zM533 711h356v711h-356v-711z" />
<glyph unicode="&#xc7;" d="M178 178v1244h178v178h711v-178h177v-355h-355v355h-356v-1244h356v355h355v-355h-177v-178h-178v-178h178v-178h-178v-177h-711v177h533v178h-178v178h-177v178h-178z" />
<glyph unicode="&#xc8;" d="M178 0v1600h1066v-178h-711v-533h534v-178h-534v-533h711v-178h-1066zM356 1956v177h355v-177h178v-178h-356v178h-177z" />
<glyph unicode="&#xc9;" d="M178 0v1600h1066v-178h-711v-533h534v-178h-534v-533h711v-178h-1066zM533 1778v178h178v177h356v-177h-178v-178h-356z" />
<glyph unicode="&#xca;" d="M178 0v1600h1066v-178h-711v-533h534v-178h-534v-533h711v-178h-1066zM178 1778v178h178v177h177v178h356v-178h178v-177h177v-178h-355v178h-356v-178h-355z" />
<glyph unicode="&#xcb;" d="M178 0v1600h1066v-178h-711v-533h534v-178h-534v-533h711v-178h-1066zM178 1778v355h355v-355h-355zM889 1778v355h355v-355h-355z" />
<glyph unicode="&#xcc;" horiz-adv-x="1066" d="M178 0v178h178v1244h-178v178h711v-178h-178v-1244h178v-178h-711zM178 1956v177h355v-177h178v-178h-355v178h-178z" />
<glyph unicode="&#xcd;" horiz-adv-x="1066" d="M178 0v178h178v1244h-178v178h711v-178h-178v-1244h178v-178h-711zM356 1778v178h177v177h356v-177h-178v-178h-355z" />
<glyph unicode="&#xce;" horiz-adv-x="1066" d="M0 1778v178h178v177h178v178h355v-178h178v-177h178v-178h-356v178h-355v-178h-356zM178 0v178h178v1244h-178v178h711v-178h-178v-1244h178v-178h-711z" />
<glyph unicode="&#xcf;" horiz-adv-x="1066" d="M0 1778v355h356v-355h-356zM178 0v178h178v1244h-178v178h711v-178h-178v-1244h178v-178h-711zM711 1778v355h356v-355h-356z" />
<glyph unicode="&#xd0;" d="M0 711v178h178v711h889v-178h177v-1244h-177v-178h-889v711h-178zM533 178h356v1244h-356v-533h178v-178h-178v-533z" />
<glyph unicode="&#xd1;" d="M178 0v1600h355v-356h178v-177h178v533h355v-1600h-355v711h-178v178h-178v-889h-355zM178 1778v178h178v177h533v-177h178v177h355v-177h-178v-178h-533v178h-178v-178h-355z" />
<glyph unicode="&#xd2;" d="M178 178v1244h178v178h711v-178h177v-1244h-177v-178h-711v178h-178zM356 1956v177h355v-177h178v-178h-356v178h-177zM533 178h356v1244h-356v-1244z" />
<glyph unicode="&#xd3;" d="M178 178v1244h178v178h711v-178h177v-1244h-177v-178h-711v178h-178zM533 178h356v1244h-356v-1244zM533 1778v178h178v177h356v-177h-178v-178h-356z" />
<glyph unicode="&#xd4;" d="M178 178v1244h178v178h711v-178h177v-1244h-177v-178h-711v178h-178zM178 1778v178h178v177h177v178h356v-178h178v-177h177v-178h-355v178h-356v-178h-355zM533 178h356v1244h-356v-1244z" />
<glyph unicode="&#xd5;" d="M178 178v1244h178v178h711v-178h177v-1244h-177v-178h-711v178h-178zM178 1778v178h178v177h533v-177h178v177h355v-177h-178v-178h-533v178h-178v-178h-355zM533 178h356v1244h-356v-1244z" />
<glyph unicode="&#xd6;" d="M178 178v1244h178v178h711v-178h177v-1244h-177v-178h-711v178h-178zM178 1778v355h355v-355h-355zM533 178h356v1244h-356v-1244zM889 1778v355h355v-355h-355z" />
<glyph unicode="&#xd7;" d="M178 178v178h178v177h177v178h-177v178h-178v178h355v-178h356v178h355v-178h-177v-178h-178v-178h178v-177h177v-178h-355v178h-356v-178h-355z" />
<glyph unicode="&#xd8;" d="M0 0v356h178v1066h178v178h711v-178h177v178h178v-356h-178v-1066h-177v-178h-711v178h-178v-178h-178zM533 178h356v533h-178v-178h-178v-355zM533 889h178v178h178v355h-356v-533z" />
<glyph unicode="&#xd9;" d="M178 178v1422h355v-1422h356v1422h355v-1422h-177v-178h-711v178h-178zM356 1956v177h355v-177h178v-178h-356v178h-177z" />
<glyph unicode="&#xda;" d="M178 178v1422h355v-1422h356v1422h355v-1422h-177v-178h-711v178h-178zM533 1778v178h178v177h356v-177h-178v-178h-356z" />
<glyph unicode="&#xdb;" d="M178 178v1422h355v-1422h356v1422h355v-1422h-177v-178h-711v178h-178zM178 1778v178h178v177h177v178h356v-178h178v-177h177v-178h-355v178h-356v-178h-355z" />
<glyph unicode="&#xdc;" d="M178 178v1422h355v-1422h356v1422h355v-1422h-177v-178h-711v178h-178zM178 1778v355h355v-355h-355zM889 1778v355h355v-355h-355z" />
<glyph unicode="&#xdd;" d="M178 889v711h355v-711h356v711h355v-711h-177v-178h-178v-711h-356v711h-177v178h-178zM533 1778v178h178v177h356v-177h-178v-178h-356z" />
<glyph unicode="&#xde;" d="M178 0v1600h355v-356h534v-177h177v-534h-177v-177h-534v-356h-355zM533 533h356v534h-356v-534z" />
<glyph unicode="&#xdf;" d="M178 0v1422h178v178h711v-178h177v-533h-177v-178h177v-533h-177v-178h-356v178h178v533h-178v178h178v533h-356v-1422h-355z" />
<glyph unicode="&#xe0;" d="M178 178v355h178v178h533v356h-356v-178h-355v178h178v177h711v-177h177v-1067h-888v178h-178zM356 1600v178h355v-178h178v-178h-356v178h-177zM533 178h356v355h-356v-355z" />
<glyph unicode="&#xe1;" d="M178 178v355h178v178h533v356h-356v-178h-355v178h178v177h711v-177h177v-1067h-888v178h-178zM533 178h356v355h-356v-355zM533 1422v178h178v178h356v-178h-178v-178h-356z" />
<glyph unicode="&#xe2;" d="M178 178v355h178v178h533v356h-356v-178h-355v178h178v177h711v-177h177v-1067h-888v178h-178zM178 1422v178h178v178h177v178h356v-178h178v-178h177v-178h-355v178h-356v-178h-355zM533 178h356v355h-356v-355z" />
<glyph unicode="&#xe3;" d="M178 178v355h178v178h533v356h-356v-178h-355v178h178v177h711v-177h177v-1067h-888v178h-178zM178 1422v178h178v178h533v-178h178v178h355v-178h-178v-178h-533v178h-178v-178h-355zM533 178h356v355h-356v-355z" />
<glyph unicode="&#xe4;" d="M178 178v355h178v178h533v356h-356v-178h-355v178h178v177h711v-177h177v-1067h-888v178h-178zM178 1422v356h355v-356h-355zM533 178h356v355h-356v-355zM889 1422v356h355v-356h-355z" />
<glyph unicode="&#xe5;" d="M178 178v355h178v178h533v356h-356v-178h-355v178h178v177h711v-177h177v-1067h-888v178h-178zM178 1600v178h178v178h711v-178h177v-178h-177v-178h-711v178h-178zM533 178h356v355h-356v-355zM533 1600h356v178h-356v-178z" />
<glyph unicode="&#xe6;" horiz-adv-x="1777" d="M178 178v355h178v178h355v356h-178v-178h-355v178h178v177h533v-177h178v177h355v-177h178v-534h-533v-355h177v178h356v-178h-178v-178h-533v178h-178v-178h-355v178h-178zM533 178h178v355h-178v-355zM1067 711h177v356h-177v-356z" />
<glyph unicode="&#xe7;" d="M178 178v889h178v177h711v-177h177v-356h-355v356h-356v-889h356v355h355v-355h-177v-178h-178v-178h178v-178h-178v-177h-711v177h533v178h-178v178h-177v178h-178z" />
<glyph unicode="&#xe8;" d="M178 178v889h178v177h711v-177h177v-534h-711v-355h356v178h355v-178h-177v-178h-711v178h-178zM356 1600v178h355v-178h178v-178h-356v178h-177zM533 711h356v356h-356v-356z" />
<glyph unicode="&#xe9;" d="M178 178v889h178v177h711v-177h177v-534h-711v-355h356v178h355v-178h-177v-178h-711v178h-178zM533 711h356v356h-356v-356zM533 1422v178h178v178h356v-178h-178v-178h-356z" />
<glyph unicode="&#xea;" d="M178 178v889h178v177h711v-177h177v-534h-711v-355h356v178h355v-178h-177v-178h-711v178h-178zM178 1422v178h178v178h177v178h356v-178h178v-178h177v-178h-355v178h-356v-178h-355zM533 711h356v356h-356v-356z" />
<glyph unicode="&#xeb;" d="M178 178v889h178v177h711v-177h177v-534h-711v-355h356v178h355v-178h-177v-178h-711v178h-178zM178 1422v356h355v-356h-355zM533 711h356v356h-356v-356zM889 1422v356h355v-356h-355z" />
<glyph unicode="&#xec;" horiz-adv-x="1066" d="M178 0v178h178v889h-178v177h533v-1066h178v-178h-711zM178 1600v178h355v-178h178v-178h-355v178h-178z" />
<glyph unicode="&#xed;" horiz-adv-x="1066" d="M178 0v178h178v889h-178v177h533v-1066h178v-178h-711zM356 1422v178h177v178h356v-178h-178v-178h-355z" />
<glyph unicode="&#xee;" horiz-adv-x="1066" d="M0 1422v178h178v178h178v178h355v-178h178v-178h178v-178h-356v178h-355v-178h-356zM178 0v178h178v889h-178v177h533v-1066h178v-178h-711z" />
<glyph unicode="&#xef;" horiz-adv-x="1066" d="M0 1422v356h356v-356h-356zM178 0v178h178v889h-178v177h533v-1066h178v-178h-711zM711 1422v356h356v-356h-356z" />
<glyph unicode="&#xf0;" d="M178 178v711h178v178h533v177h-178v178h178v178h355v-178h178v-178h-178v-1244h-888v178h-178zM533 178h356v711h-356v-711z" />
<glyph unicode="&#xf1;" d="M178 0v1244h889v-177h177v-1067h-355v1067h-356v-1067h-355zM178 1422v178h178v178h533v-178h178v178h355v-178h-178v-178h-533v178h-178v-178h-355z" />
<glyph unicode="&#xf2;" d="M178 178v889h178v177h711v-177h177v-889h-177v-178h-711v178h-178zM356 1600v178h355v-178h178v-178h-356v178h-177zM533 178h356v889h-356v-889z" />
<glyph unicode="&#xf3;" d="M178 178v889h178v177h711v-177h177v-889h-177v-178h-711v178h-178zM533 178h356v889h-356v-889zM533 1422v178h178v178h356v-178h-178v-178h-356z" />
<glyph unicode="&#xf4;" d="M178 178v889h178v177h711v-177h177v-889h-177v-178h-711v178h-178zM178 1422v178h178v178h177v178h356v-178h178v-178h177v-178h-355v178h-356v-178h-355zM533 178h356v889h-356v-889z" />
<glyph unicode="&#xf5;" d="M178 178v889h178v177h711v-177h177v-889h-177v-178h-711v178h-178zM178 1422v178h178v178h533v-178h178v178h355v-178h-178v-178h-533v178h-178v-178h-355zM533 178h356v889h-356v-889z" />
<glyph unicode="&#xf6;" d="M178 178v889h178v177h711v-177h177v-889h-177v-178h-711v178h-178zM178 1422v356h355v-356h-355zM533 178h356v889h-356v-889zM889 1422v356h355v-356h-355z" />
<glyph unicode="&#xf7;" d="M178 711v178h1066v-178h-1066zM533 178v355h356v-355h-356zM533 1067v355h356v-355h-356z" />
<glyph unicode="&#xf8;" d="M0 0v356h178v711h178v177h711v-177h177v177h178v-355h-178v-711h-177v-178h-711v178h-178v-178h-178zM533 178h356v355h-178v-177h-178v-178zM533 711h178v178h178v178h-356v-356z" />
<glyph unicode="&#xf9;" d="M178 178v1066h355v-1066h356v1066h355v-1244h-888v178h-178zM356 1600v178h355v-178h178v-178h-356v178h-177z" />
<glyph unicode="&#xfa;" d="M178 178v1066h355v-1066h356v1066h355v-1244h-888v178h-178zM533 1422v178h178v178h356v-178h-178v-178h-356z" />
<glyph unicode="&#xfb;" d="M178 178v1066h355v-1066h356v1066h355v-1244h-888v178h-178zM178 1422v178h178v178h177v178h356v-178h178v-178h177v-178h-355v178h-356v-178h-355z" />
<glyph unicode="&#xfc;" d="M178 178v1066h355v-1066h356v1066h355v-1244h-888v178h-178zM178 1422v356h355v-356h-355zM889 1422v356h355v-356h-355z" />
<glyph unicode="&#xfd;" d="M178 0h355v-178h356v356h-533v178h-178v888h355v-888h356v888h355v-1422h-177v-178h-711v178h-178v178zM533 1422v178h178v178h356v-178h-178v-178h-356z" />
<glyph unicode="&#xfe;" d="M178 -356v1956h355v-356h534v-177h177v-889h-177v-178h-534v-356h-355zM533 178h356v889h-356v-889z" />
<glyph unicode="&#xff;" d="M178 0h355v-178h356v356h-533v178h-178v888h355v-888h356v888h355v-1422h-177v-178h-711v178h-178v178zM178 1422v356h355v-356h-355zM889 1422v356h355v-356h-355z" />
<glyph unicode="&#x152;" horiz-adv-x="1777" d="M178 178v1244h178v178h1244v-178h-356v-533h356v-178h-356v-533h356v-178h-1244v178h-178zM533 178h356v1244h-356v-1244z" />
<glyph unicode="&#x153;" horiz-adv-x="1777" d="M178 178v889h178v177h533v-177h178v177h355v-177h178v-534h-533v-355h177v178h356v-178h-178v-178h-533v178h-178v-178h-355v178h-178zM533 178h178v889h-178v-889zM1067 711h177v356h-177v-356z" />
<glyph unicode="&#x178;" d="M178 889v711h355v-711h356v711h355v-711h-177v-178h-178v-711h-356v711h-177v178h-178zM178 1778v355h355v-355h-355zM889 1778v355h355v-355h-355z" />
<glyph unicode="&#x2c6;" d="M178 1067v177h178v178h177v178h356v-178h178v-178h177v-177h-355v177h-356v-177h-355z" />
<glyph unicode="&#x2dc;" horiz-adv-x="1600" d="M178 1244v178h178v178h533v-178h178v178h355v-178h-178v-178h-533v178h-178v-178h-355z" />
<glyph unicode="&#x2000;" horiz-adv-x="1155" />
<glyph unicode="&#x2001;" horiz-adv-x="2311" />
<glyph unicode="&#x2002;" horiz-adv-x="1155" />
<glyph unicode="&#x2003;" horiz-adv-x="2311" />
<glyph unicode="&#x2004;" horiz-adv-x="770" />
<glyph unicode="&#x2005;" horiz-adv-x="577" />
<glyph unicode="&#x2006;" horiz-adv-x="385" />
<glyph unicode="&#x2007;" horiz-adv-x="385" />
<glyph unicode="&#x2008;" horiz-adv-x="288" />
<glyph unicode="&#x2009;" horiz-adv-x="462" />
<glyph unicode="&#x200a;" horiz-adv-x="128" />
<glyph unicode="&#x2010;" horiz-adv-x="1066" d="M178 711v178h711v-178h-711z" />
<glyph unicode="&#x2011;" horiz-adv-x="1066" d="M178 711v178h711v-178h-711z" />
<glyph unicode="&#x2012;" horiz-adv-x="1066" d="M178 711v178h711v-178h-711z" />
<glyph unicode="&#x2013;" horiz-adv-x="1066" d="M178 711v178h711v-178h-711z" />
<glyph unicode="&#x2014;" horiz-adv-x="1777" d="M178 711v178h1422v-178h-1422z" />
<glyph unicode="&#x2018;" horiz-adv-x="888" d="M178 1067v355h178v178h355v-178h-178v-355h-355z" />
<glyph unicode="&#x2019;" horiz-adv-x="888" d="M178 1067v177h178v356h355v-356h-178v-177h-355z" />
<glyph unicode="&#x201a;" horiz-adv-x="888" d="M178 0h178v356h355v-356h-178v-178h-355v178z" />
<glyph unicode="&#x201c;" horiz-adv-x="1600" d="M178 1067v355h178v178h355v-178h-178v-355h-355zM889 1067v355h178v178h355v-178h-178v-355h-355z" />
<glyph unicode="&#x201d;" horiz-adv-x="1600" d="M178 1067v177h178v356h355v-356h-178v-177h-355zM889 1067v177h178v356h355v-356h-178v-177h-355z" />
<glyph unicode="&#x201e;" horiz-adv-x="1600" d="M178 0h178v356h355v-356h-178v-178h-355v178zM889 0h178v356h355v-356h-178v-178h-355v178z" />
<glyph unicode="&#x2022;" horiz-adv-x="1066" d="M178 533v356h178v178h355v-178h178v-356h-178v-177h-355v177h-178z" />
<glyph unicode="&#x2026;" horiz-adv-x="1777" d="M178 0v356h355v-356h-355zM711 0v356h356v-356h-356zM1244 0v356h356v-356h-356z" />
<glyph unicode="&#x202f;" horiz-adv-x="462" />
<glyph unicode="&#x2039;" horiz-adv-x="1066" d="M178 711v178h178v178h177v177h356v-177h-178v-178h-178v-178h178v-178h178v-177h-356v177h-177v178h-178z" />
<glyph unicode="&#x203a;" horiz-adv-x="1066" d="M178 356v177h178v178h177v178h-177v178h-178v177h355v-177h178v-178h178v-178h-178v-178h-178v-177h-355z" />
<glyph unicode="&#x205f;" horiz-adv-x="577" />
<glyph unicode="&#x20ac;" horiz-adv-x="1600" d="M178 533v178h178v178h-178v178h178v355h177v178h711v-178h178v-355h-355v-178h-356v-178h356v-178h355v-355h-178v-178h-711v178h-177v355h-178zM711 178h356v355h-356v-355zM711 1067h356v355h-356v-355z" />
<glyph unicode="&#x2122;" horiz-adv-x="1955" d="M178 1422v178h533v-178h-178v-533h-177v533h-178zM889 889v711h178v-178h177v-178h-177v-355h-178zM1244 1067v177h178v-177h-178zM1422 1244v178h178v178h178v-711h-178v355h-178z" />
<glyph unicode="&#x25fc;" horiz-adv-x="1244" d="M0 0v1244h1244v-1244h-1244z" />
</font>
</defs>
</svg>
